# Blender v2.78 (sub 0) OBJ File: ''
# www.blender.org
v 0.000000 0.400000 0.000000
v 0.000000 0.400000 -0.050000
v 0.035355 0.400000 -0.035355
v 0.050000 0.400000 0.000000
v 0.035355 0.400000 0.035355
v -0.000000 0.400000 0.050000
v -0.035355 0.400000 0.035355
v -0.050000 0.400000 -0.000000
v -0.035355 0.400000 -0.035355
v 0.000000 0.500000 0.000000
vn 0.0000 -1.0000 0.0000
vn 0.3474 0.4194 -0.8387
vn 0.8387 0.4194 -0.3474
vn 0.8387 0.4194 0.3474
vn 0.3474 0.4194 0.8387
vn -0.3474 0.4194 0.8387
vn -0.8387 0.4194 0.3474
vn -0.8387 0.4194 -0.3474
vn -0.3474 0.4194 -0.8387
s off
f 1//1 2//1 3//1
f 2//2 10//2 3//2
f 1//1 3//1 4//1
f 3//3 10//3 4//3
f 1//1 4//1 5//1
f 4//4 10//4 5//4
f 1//1 5//1 6//1
f 5//5 10//5 6//5
f 1//1 6//1 7//1
f 6//6 10//6 7//6
f 1//1 7//1 8//1
f 7//7 10//7 8//7
f 1//1 8//1 9//1
f 8//8 10//8 9//8
f 1//1 9//1 2//1
f 9//9 10//9 2//9
v 0.000000 0.100000 -0.025000
v 0.000000 0.400000 -0.025000
v 0.004877 0.100000 -0.024520
v 0.004877 0.400000 -0.024520
v 0.009567 0.100000 -0.023097
v 0.009567 0.400000 -0.023097
v 0.013889 0.100000 -0.020787
v 0.013889 0.400000 -0.020787
v 0.017678 0.100000 -0.017678
v 0.017678 0.400000 -0.017678
v 0.020787 0.100000 -0.013889
v 0.020787 0.400000 -0.013889
v 0.023097 0.100000 -0.009567
v 0.023097 0.400000 -0.009567
v 0.024520 0.100000 -0.004877
v 0.024520 0.400000 -0.004877
v 0.025000 0.100000 -0.000000
v 0.025000 0.400000 -0.000000
v 0.024520 0.100000 0.004877
v 0.024520 0.400000 0.004877
v 0.023097 0.100000 0.009567
v 0.023097 0.400000 0.009567
v 0.020787 0.100000 0.013889
v 0.020787 0.400000 0.013889
v 0.017678 0.100000 0.017678
v 0.017678 0.400000 0.017678
v 0.013889 0.100000 0.020787
v 0.013889 0.400000 0.020787
v 0.009567 0.100000 0.023097
v 0.009567 0.400000 0.023097
v 0.004877 0.100000 0.024520
v 0.004877 0.400000 0.024520
v -0.000000 0.100000 0.025000
v -0.000000 0.400000 0.025000
v -0.004877 0.100000 0.024520
v -0.004877 0.400000 0.024520
v -0.009567 0.100000 0.023097
v -0.009567 0.400000 0.023097
v -0.013889 0.100000 0.020787
v -0.013889 0.400000 0.020787
v -0.017678 0.100000 0.017678
v -0.017678 0.400000 0.017678
v -0.020787 0.100000 0.013889
v -0.020787 0.400000 0.013889
v -0.023097 0.100000 0.009567
v -0.023097 0.400000 0.009567
v -0.024520 0.100000 0.004877
v -0.024520 0.400000 0.004877
v -0.025000 0.100000 -0.000000
v -0.025000 0.400000 -0.000000
v -0.024520 0.100000 -0.004877
v -0.024520 0.400000 -0.004877
v -0.023097 0.100000 -0.009567
v -0.023097 0.400000 -0.009567
v -0.020787 0.100000 -0.013889
v -0.020787 0.400000 -0.013889
v -0.017678 0.100000 -0.017678
v -0.017678 0.400000 -0.017678
v -0.013889 0.100000 -0.020787
v -0.013889 0.400000 -0.020787
v -0.009567 0.100000 -0.023097
v -0.009567 0.400000 -0.023097
v -0.004877 0.100000 -0.024520
v -0.004877 0.400000 -0.024520
vn 0.0000 1.0000 -0.0000
vn 0.0000 -1.0000 -0.0000
vn 0.0000 -0.6857 -0.7279
vn 0.0000 0.6857 -0.7279
vn 0.1420 0.6857 -0.7139
vn 0.1420 -0.6857 -0.7139
vn 0.2785 0.6857 -0.6725
vn 0.2785 -0.6857 -0.6725
vn 0.4044 0.6857 -0.6052
vn 0.4044 -0.6857 -0.6052
vn 0.5147 0.6857 -0.5147
vn 0.5147 -0.6857 -0.5147
vn 0.6052 0.6857 -0.4044
vn 0.6052 -0.6857 -0.4044
vn 0.6725 0.6857 -0.2785
vn 0.6725 -0.6857 -0.2785
vn 0.7139 0.6857 -0.1420
vn 0.7139 -0.6857 -0.1420
vn 0.7279 0.6857 0.0000
vn 0.7279 -0.6857 0.0000
vn 0.7139 0.6857 0.1420
vn 0.7139 -0.6857 0.1420
vn 0.6725 0.6857 0.2785
vn 0.6725 -0.6857 0.2785
vn 0.6052 0.6857 0.4044
vn 0.6052 -0.6857 0.4044
vn 0.5147 0.6857 0.5147
vn 0.5147 -0.6857 0.5147
vn 0.4044 0.6857 0.6052
vn 0.4044 -0.6857 0.6052
vn 0.2785 0.6857 0.6725
vn 0.2785 -0.6857 0.6725
vn 0.1420 0.6857 0.7139
vn 0.1420 -0.6857 0.7139
vn 0.0000 0.6857 0.7279
vn 0.0000 -0.6857 0.7279
vn -0.1420 0.6857 0.7139
vn -0.1420 -0.6857 0.7139
vn -0.2785 0.6857 0.6725
vn -0.2785 -0.6857 0.6725
vn -0.4044 0.6857 0.6052
vn -0.4044 -0.6857 0.6052
vn -0.5147 0.6857 0.5147
vn -0.5147 -0.6857 0.5147
vn -0.6052 0.6857 0.4044
vn -0.6052 -0.6857 0.4044
vn -0.6725 0.6857 0.2785
vn -0.6725 -0.6857 0.2785
vn -0.7139 0.6857 0.1420
vn -0.7139 -0.6857 0.1420
vn -0.7279 0.6857 0.0000
vn -0.7279 -0.6857 0.0000
vn -0.7139 0.6857 -0.1420
vn -0.7139 -0.6857 -0.1420
vn -0.6725 0.6857 -0.2785
vn -0.6725 -0.6857 -0.2785
vn -0.6052 0.6857 -0.4044
vn -0.6052 -0.6857 -0.4044
vn -0.5147 0.6857 -0.5147
vn -0.5147 -0.6857 -0.5147
vn -0.4044 0.6857 -0.6052
vn -0.4044 -0.6857 -0.6052
vn -0.2785 0.6857 -0.6725
vn -0.2785 -0.6857 -0.6725
vn -0.1420 0.6857 -0.7139
vn -0.1420 -0.6857 -0.7139
s off
f 14//10 12//10 74//10 72//10 70//10 68//10 66//10 64//10 62//10 60//10 58//10 56//10 54//10 52//10 50//10 48//10 46//10 44//10 42//10 40//10 38//10 36//10 34//10 32//10 30//10 28//10 26//10 24//10 22//10 20//10 18//10 16//10
f 11//11 13//11 15//11 17//11 19//11 21//11 23//11 25//11 27//11 29//11 31//11 33//11 35//11 37//11 39//11 41//11 43//11 45//11 47//11 49//11 51//11 53//11 55//11 57//11 59//11 61//11 63//11 65//11 67//11 69//11 71//11 73//11
s 1
f 11//12 12//13 14//14 13//15
f 13//15 14//14 16//16 15//17
f 15//17 16//16 18//18 17//19
f 17//19 18//18 20//20 19//21
f 19//21 20//20 22//22 21//23
f 21//23 22//22 24//24 23//25
f 23//25 24//24 26//26 25//27
f 25//27 26//26 28//28 27//29
f 27//29 28//28 30//30 29//31
f 29//31 30//30 32//32 31//33
f 31//33 32//32 34//34 33//35
f 33//35 34//34 36//36 35//37
f 35//37 36//36 38//38 37//39
f 37//39 38//38 40//40 39//41
f 39//41 40//40 42//42 41//43
f 41//43 42//42 44//44 43//45
f 43//45 44//44 46//46 45//47
f 45//47 46//46 48//48 47//49
f 47//49 48//48 50//50 49//51
f 49//51 50//50 52//52 51//53
f 51//53 52//52 54//54 53//55
f 53//55 54//54 56//56 55//57
f 55//57 56//56 58//58 57//59
f 57//59 58//58 60//60 59//61
f 59//61 60//60 62//62 61//63
f 61//63 62//62 64//64 63//65
f 63//65 64//64 66//66 65//67
f 65//67 66//66 68//68 67//69
f 67//69 68//68 70//70 69//71
f 69//71 70//70 72//72 71//73
f 71//73 72//72 74//74 73//75
f 73//75 74//74 12//13 11//12
v -0.100000 -0.100000 0.100000
v -0.100000 0.100000 0.100000
v -0.100000 -0.100000 -0.100000
v -0.100000 0.100000 -0.100000
v 0.100000 -0.100000 0.100000
v 0.100000 0.100000 0.100000
v 0.100000 -0.100000 -0.100000
v 0.100000 0.100000 -0.100000
vn -1.0000 0.0000 0.0000
vn 0.0000 0.0000 -1.0000
vn 1.0000 0.0000 0.0000
vn 0.0000 0.0000 1.0000
vn 0.0000 -1.0000 0.0000
vn 0.0000 1.0000 0.0000
s off
f 75//76 76//76 78//76 77//76
f 77//77 78//77 82//77 81//77
f 81//78 82//78 80//78 79//78
f 79//79 80//79 76//79 75//79
f 77//80 81//80 79//80 75//80
f 82//81 78//81 76//81 80//81
v 0.000000 0.000000 -0.400000
v 0.000000 -0.050000 -0.400000
v 0.035355 -0.035355 -0.400000
v 0.050000 0.000000 -0.400000
v 0.035355 0.035355 -0.400000
v -0.000000 0.050000 -0.400000
v -0.035355 0.035355 -0.400000
v -0.050000 0.000000 -0.400000
v -0.035355 -0.035355 -0.400000
v 0.000000 -0.000000 -0.500000
vn 0.0000 0.0000 1.0000
vn 0.3474 -0.8387 -0.4194
vn 0.8387 -0.3474 -0.4194
vn 0.8387 0.3474 -0.4194
vn 0.3474 0.8387 -0.4194
vn -0.3474 0.8387 -0.4194
vn -0.8387 0.3474 -0.4194
vn -0.8387 -0.3474 -0.4194
vn -0.3474 -0.8387 -0.4194
s off
f 83//82 84//82 85//82
f 84//83 92//83 85//83
f 83//82 85//82 86//82
f 85//84 92//84 86//84
f 83//82 86//82 87//82
f 86//85 92//85 87//85
f 83//82 87//82 88//82
f 87//86 92//86 88//86
f 83//82 88//82 89//82
f 88//87 92//87 89//87
f 83//82 89//82 90//82
f 89//88 92//88 90//88
f 83//82 90//82 91//82
f 90//89 92//89 91//89
f 83//82 91//82 84//82
f 91//90 92//90 84//90
v 0.000000 -0.025000 -0.100000
v 0.000000 -0.025000 -0.400000
v 0.004877 -0.024520 -0.100000
v 0.004877 -0.024520 -0.400000
v 0.009567 -0.023097 -0.100000
v 0.009567 -0.023097 -0.400000
v 0.013889 -0.020787 -0.100000
v 0.013889 -0.020787 -0.400000
v 0.017678 -0.017678 -0.100000
v 0.017678 -0.017678 -0.400000
v 0.020787 -0.013889 -0.100000
v 0.020787 -0.013889 -0.400000
v 0.023097 -0.009567 -0.100000
v 0.023097 -0.009567 -0.400000
v 0.024520 -0.004877 -0.100000
v 0.024520 -0.004877 -0.400000
v 0.025000 -0.000000 -0.100000
v 0.025000 -0.000000 -0.400000
v 0.024520 0.004877 -0.100000
v 0.024520 0.004877 -0.400000
v 0.023097 0.009567 -0.100000
v 0.023097 0.009567 -0.400000
v 0.020787 0.013889 -0.100000
v 0.020787 0.013889 -0.400000
v 0.017678 0.017678 -0.100000
v 0.017678 0.017678 -0.400000
v 0.013889 0.020787 -0.100000
v 0.013889 0.020787 -0.400000
v 0.009567 0.023097 -0.100000
v 0.009567 0.023097 -0.400000
v 0.004877 0.024520 -0.100000
v 0.004877 0.024520 -0.400000
v -0.000000 0.025000 -0.100000
v -0.000000 0.025000 -0.400000
v -0.004877 0.024520 -0.100000
v -0.004877 0.024520 -0.400000
v -0.009567 0.023097 -0.100000
v -0.009567 0.023097 -0.400000
v -0.013889 0.020787 -0.100000
v -0.013889 0.020787 -0.400000
v -0.017678 0.017678 -0.100000
v -0.017678 0.017678 -0.400000
v -0.020787 0.013889 -0.100000
v -0.020787 0.013889 -0.400000
v -0.023097 0.009567 -0.100000
v -0.023097 0.009567 -0.400000
v -0.024520 0.004877 -0.100000
v -0.024520 0.004877 -0.400000
v -0.025000 -0.000000 -0.100000
v -0.025000 -0.000000 -0.400000
v -0.024520 -0.004877 -0.100000
v -0.024520 -0.004877 -0.400000
v -0.023097 -0.009567 -0.100000
v -0.023097 -0.009567 -0.400000
v -0.020787 -0.013889 -0.100000
v -0.020787 -0.013889 -0.400000
v -0.017678 -0.017678 -0.100000
v -0.017678 -0.017678 -0.400000
v -0.013889 -0.020787 -0.100000
v -0.013889 -0.020787 -0.400000
v -0.009567 -0.023097 -0.100000
v -0.009567 -0.023097 -0.400000
v -0.004877 -0.024520 -0.100000
v -0.004877 -0.024520 -0.400000
vn 0.0000 0.0000 -1.0000
vn -0.0000 0.0000 1.0000
vn 0.0000 -0.7279 0.6857
vn 0.0000 -0.7279 -0.6857
vn 0.1420 -0.7139 -0.6857
vn 0.1420 -0.7139 0.6857
vn 0.2785 -0.6725 -0.6857
vn 0.2785 -0.6725 0.6857
vn 0.4044 -0.6052 -0.6857
vn 0.4044 -0.6052 0.6857
vn 0.5147 -0.5147 -0.6857
vn 0.5147 -0.5147 0.6857
vn 0.6052 -0.4044 -0.6857
vn 0.6052 -0.4044 0.6857
vn 0.6725 -0.2785 -0.6857
vn 0.6725 -0.2785 0.6857
vn 0.7139 -0.1420 -0.6857
vn 0.7139 -0.1420 0.6857
vn 0.7279 0.0000 -0.6857
vn 0.7279 0.0000 0.6857
vn 0.7139 0.1420 -0.6857
vn 0.7139 0.1420 0.6857
vn 0.6725 0.2785 -0.6857
vn 0.6725 0.2785 0.6857
vn 0.6052 0.4044 -0.6857
vn 0.6052 0.4044 0.6857
vn 0.5147 0.5147 -0.6857
vn 0.5147 0.5147 0.6857
vn 0.4044 0.6052 -0.6857
vn 0.4044 0.6052 0.6857
vn 0.2785 0.6725 -0.6857
vn 0.2785 0.6725 0.6857
vn 0.1420 0.7139 -0.6857
vn 0.1420 0.7139 0.6857
vn 0.0000 0.7279 -0.6857
vn 0.0000 0.7279 0.6857
vn -0.1420 0.7139 -0.6857
vn -0.1420 0.7139 0.6857
vn -0.2785 0.6725 -0.6857
vn -0.2785 0.6725 0.6857
vn -0.4044 0.6052 -0.6857
vn -0.4044 0.6052 0.6857
vn -0.5147 0.5147 -0.6857
vn -0.5147 0.5147 0.6857
vn -0.6052 0.4044 -0.6857
vn -0.6052 0.4044 0.6857
vn -0.6725 0.2785 -0.6857
vn -0.6725 0.2785 0.6857
vn -0.7139 0.1420 -0.6857
vn -0.7139 0.1420 0.6857
vn -0.7279 0.0000 -0.6857
vn -0.7279 0.0000 0.6857
vn -0.7139 -0.1420 -0.6857
vn -0.7139 -0.1420 0.6857
vn -0.6725 -0.2785 -0.6857
vn -0.6725 -0.2785 0.6857
vn -0.6052 -0.4044 -0.6857
vn -0.6052 -0.4044 0.6857
vn -0.5147 -0.5147 -0.6857
vn -0.5147 -0.5147 0.6857
vn -0.4044 -0.6052 -0.6857
vn -0.4044 -0.6052 0.6857
vn -0.2785 -0.6725 -0.6857
vn -0.2785 -0.6725 0.6857
vn -0.1420 -0.7139 -0.6857
vn -0.1420 -0.7139 0.6857
s off
f 96//91 94//91 156//91 154//91 152//91 150//91 148//91 146//91 144//91 142//91 140//91 138//91 136//91 134//91 132//91 130//91 128//91 126//91 124//91 122//91 120//91 118//91 116//91 114//91 112//91 110//91 108//91 106//91 104//91 102//91 100//91 98//91
f 93//92 95//92 97//92 99//92 101//92 103//92 105//92 107//92 109//92 111//92 113//92 115//92 117//92 119//92 121//92 123//92 125//92 127//92 129//92 131//92 133//92 135//92 137//92 139//92 141//92 143//92 145//92 147//92 149//92 151//92 153//92 155//92
s 1
f 93//93 94//94 96//95 95//96
f 95//96 96//95 98//97 97//98
f 97//98 98//97 100//99 99//100
f 99//100 100//99 102//101 101//102
f 101//102 102//101 104//103 103//104
f 103//104 104//103 106//105 105//106
f 105//106 106//105 108//107 107//108
f 107//108 108//107 110//109 109//110
f 109//110 110//109 112//111 111//112
f 111//112 112//111 114//113 113//114
f 113//114 114//113 116//115 115//116
f 115//116 116//115 118//117 117//118
f 117//118 118//117 120//119 119//120
f 119//120 120//119 122//121 121//122
f 121//122 122//121 124//123 123//124
f 123//124 124//123 126//125 125//126
f 125//126 126//125 128//127 127//128
f 127//128 128//127 130//129 129//130
f 129//130 130//129 132//131 131//132
f 131//132 132//131 134//133 133//134
f 133//134 134//133 136//135 135//136
f 135//136 136//135 138//137 137//138
f 137//138 138//137 140//139 139//140
f 139//140 140//139 142//141 141//142
f 141//142 142//141 144//143 143//144
f 143//144 144//143 146//145 145//146
f 145//146 146//145 148//147 147//148
f 147//148 148//147 150//149 149//150
f 149//150 150//149 152//151 151//152
f 151//152 152//151 154//153 153//154
f 153//154 154//153 156//155 155//156
f 155//156 156//155 94//94 93//93
v 0.400000 0.000000 -0.000000
v 0.400000 -0.050000 -0.000000
v 0.400000 -0.035355 0.035355
v 0.400000 0.000000 0.050000
v 0.400000 0.035355 0.035355
v 0.400000 0.050000 -0.000000
v 0.400000 0.035355 -0.035355
v 0.400000 0.000000 -0.050000
v 0.400000 -0.035355 -0.035355
v 0.500000 -0.000000 0.000000
vn -1.0000 0.0000 0.0000
vn 0.4194 -0.8387 0.3474
vn 0.4194 -0.3474 0.8387
vn 0.4194 0.3474 0.8387
vn 0.4194 0.8387 0.3474
vn 0.4194 0.8387 -0.3474
vn 0.4194 0.3474 -0.8387
vn 0.4194 -0.3474 -0.8387
vn 0.4194 -0.8387 -0.3474
s off
f 157//157 158//157 159//157
f 158//158 166//158 159//158
f 157//157 159//157 160//157
f 159//159 166//159 160//159
f 157//157 160//157 161//157
f 160//160 166//160 161//160
f 157//157 161//157 162//157
f 161//161 166//161 162//161
f 157//157 162//157 163//157
f 162//162 166//162 163//162
f 157//157 163//157 164//157
f 163//163 166//163 164//163
f 157//157 164//157 165//157
f 164//164 166//164 165//164
f 157//157 165//157 158//157
f 165//165 166//165 158//165
v 0.100000 -0.025000 -0.000000
v 0.400000 -0.025000 0.000000
v 0.100000 -0.024520 0.004877
v 0.400000 -0.024520 0.004877
v 0.100000 -0.023097 0.009567
v 0.400000 -0.023097 0.009567
v 0.100000 -0.020787 0.013889
v 0.400000 -0.020787 0.013889
v 0.100000 -0.017678 0.017678
v 0.400000 -0.017678 0.017678
v 0.100000 -0.013889 0.020787
v 0.400000 -0.013889 0.020787
v 0.100000 -0.009567 0.023097
v 0.400000 -0.009567 0.023097
v 0.100000 -0.004877 0.024520
v 0.400000 -0.004877 0.024520
v 0.100000 -0.000000 0.025000
v 0.400000 -0.000000 0.025000
v 0.100000 0.004877 0.024520
v 0.400000 0.004877 0.024520
v 0.100000 0.009567 0.023097
v 0.400000 0.009567 0.023097
v 0.100000 0.013889 0.020787
v 0.400000 0.013889 0.020787
v 0.100000 0.017678 0.017678
v 0.400000 0.017678 0.017678
v 0.100000 0.020787 0.013889
v 0.400000 0.020787 0.013889
v 0.100000 0.023097 0.009567
v 0.400000 0.023097 0.009567
v 0.100000 0.024520 0.004877
v 0.400000 0.024520 0.004877
v 0.100000 0.025000 -0.000000
v 0.400000 0.025000 0.000000
v 0.100000 0.024520 -0.004877
v 0.400000 0.024520 -0.004877
v 0.100000 0.023097 -0.009567
v 0.400000 0.023097 -0.009567
v 0.100000 0.020787 -0.013889
v 0.400000 0.020787 -0.013889
v 0.100000 0.017678 -0.017678
v 0.400000 0.017678 -0.017678
v 0.100000 0.013889 -0.020787
v 0.400000 0.013889 -0.020787
v 0.100000 0.009567 -0.023097
v 0.400000 0.009567 -0.023097
v 0.100000 0.004877 -0.024520
v 0.400000 0.004877 -0.024520
v 0.100000 -0.000000 -0.025000
v 0.400000 -0.000000 -0.025000
v 0.100000 -0.004877 -0.024520
v 0.400000 -0.004877 -0.024520
v 0.100000 -0.009567 -0.023097
v 0.400000 -0.009567 -0.023097
v 0.100000 -0.013889 -0.020787
v 0.400000 -0.013889 -0.020787
v 0.100000 -0.017678 -0.017678
v 0.400000 -0.017678 -0.017678
v 0.100000 -0.020787 -0.013889
v 0.400000 -0.020787 -0.013889
v 0.100000 -0.023097 -0.009567
v 0.400000 -0.023097 -0.009567
v 0.100000 -0.024520 -0.004877
v 0.400000 -0.024520 -0.004877
vn 1.0000 -0.0000 0.0000
vn -1.0000 -0.0000 0.0000
vn -0.6857 -0.7279 0.0000
vn 0.6857 -0.7279 0.0000
vn 0.6857 -0.7139 0.1420
vn -0.6857 -0.7139 0.1420
vn 0.6857 -0.6725 0.2785
vn -0.6857 -0.6725 0.2785
vn 0.6857 -0.6052 0.4044
vn -0.6857 -0.6052 0.4044
vn 0.6857 -0.5147 0.5147
vn -0.6857 -0.5147 0.5147
vn 0.6857 -0.4044 0.6052
vn -0.6857 -0.4044 0.6052
vn 0.6857 -0.2785 0.6725
vn -0.6857 -0.2785 0.6725
vn 0.6857 -0.1420 0.7139
vn -0.6857 -0.1420 0.7139
vn 0.6857 0.0000 0.7279
vn -0.6857 0.0000 0.7279
vn 0.6857 0.1420 0.7139
vn -0.6857 0.1420 0.7139
vn 0.6857 0.2785 0.6725
vn -0.6857 0.2785 0.6725
vn 0.6857 0.4044 0.6052
vn -0.6857 0.4044 0.6052
vn 0.6857 0.5147 0.5147
vn -0.6857 0.5147 0.5147
vn 0.6857 0.6052 0.4044
vn -0.6857 0.6052 0.4044
vn 0.6857 0.6725 0.2785
vn -0.6857 0.6725 0.2785
vn 0.6857 0.7139 0.1420
vn -0.6857 0.7139 0.1420
vn 0.6857 0.7279 0.0000
vn -0.6857 0.7279 0.0000
vn 0.6857 0.7139 -0.1420
vn -0.6857 0.7139 -0.1420
vn 0.6857 0.6725 -0.2785
vn -0.6857 0.6725 -0.2785
vn 0.6857 0.6052 -0.4044
vn -0.6857 0.6052 -0.4044
vn 0.6857 0.5147 -0.5147
vn -0.6857 0.5147 -0.5147
vn 0.6857 0.4044 -0.6052
vn -0.6857 0.4044 -0.6052
vn 0.6857 0.2785 -0.6725
vn -0.6857 0.2785 -0.6725
vn 0.6857 0.1420 -0.7139
vn -0.6857 0.1420 -0.7139
vn 0.6857 0.0000 -0.7279
vn -0.6857 0.0000 -0.7279
vn 0.6857 -0.1420 -0.7139
vn -0.6857 -0.1420 -0.7139
vn 0.6857 -0.2785 -0.6725
vn -0.6857 -0.2785 -0.6725
vn 0.6857 -0.4044 -0.6052
vn -0.6857 -0.4044 -0.6052
vn 0.6857 -0.5147 -0.5147
vn -0.6857 -0.5147 -0.5147
vn 0.6857 -0.6052 -0.4044
vn -0.6857 -0.6052 -0.4044
vn 0.6857 -0.6725 -0.2785
vn -0.6857 -0.6725 -0.2785
vn 0.6857 -0.7139 -0.1420
vn -0.6857 -0.7139 -0.1420
s off
f 170//166 168//166 230//166 228//166 226//166 224//166 222//166 220//166 218//166 216//166 214//166 212//166 210//166 208//166 206//166 204//166 202//166 200//166 198//166 196//166 194//166 192//166 190//166 188//166 186//166 184//166 182//166 180//166 178//166 176//166 174//166 172//166
f 167//167 169//167 171//167 173//167 175//167 177//167 179//167 181//167 183//167 185//167 187//167 189//167 191//167 193//167 195//167 197//167 199//167 201//167 203//167 205//167 207//167 209//167 211//167 213//167 215//167 217//167 219//167 221//167 223//167 225//167 227//167 229//167
s 1
f 167//168 168//169 170//170 169//171
f 169//171 170//170 172//172 171//173
f 171//173 172//172 174//174 173//175
f 173//175 174//174 176//176 175//177
f 175//177 176//176 178//178 177//179
f 177//179 178//178 180//180 179//181
f 179//181 180//180 182//182 181//183
f 181//183 182//182 184//184 183//185
f 183//185 184//184 186//186 185//187
f 185//187 186//186 188//188 187//189
f 187//189 188//188 190//190 189//191
f 189//191 190//190 192//192 191//193
f 191//193 192//192 194//194 193//195
f 193//195 194//194 196//196 195//197
f 195//197 196//196 198//198 197//199
f 197//199 198//198 200//200 199//201
f 199//201 200//200 202//202 201//203
f 201//203 202//202 204//204 203//205
f 203//205 204//204 206//206 205//207
f 205//207 206//206 208//208 207//209
f 207//209 208//208 210//210 209//211
f 209//211 210//210 212//212 211//213
f 211//213 212//212 214//214 213//215
f 213//215 214//214 216//216 215//217
f 215//217 216//216 218//218 217//219
f 217//219 218//218 220//220 219//221
f 219//221 220//220 222//222 221//223
f 221//223 222//222 224//224 223//225
f 223//225 224//224 226//226 225//227
f 225//227 226//226 228//228 227//229
f 227//229 228//228 230//230 229//231
f 229//231 230//230 168//169 167//168
