# Blender v2.78 (sub 0) OBJ File: ''
# www.blender.org
o Cube_Cube.001
v -0.527787 1.613688 -0.521966
v -0.548071 4.294275 -0.151693
v -0.819673 4.217357 -0.710708
v -1.091274 4.140439 -1.269724
v -0.569079 1.341410 -1.223526
v 0.048027 1.079153 -1.206862
v -0.593110 3.216377 -1.680973
v 0.166395 3.230762 -1.839736
v 0.466251 3.245148 -1.998499
v 0.568189 1.194904 -1.190198
v 0.601449 1.558352 -0.488593
v 0.620405 3.393244 -0.928708
v 0.762089 3.757125 -0.543014
v 0.903774 4.121006 -0.157319
v 0.634710 1.921800 0.213013
v 0.360955 1.751565 0.196304
v 0.441186 4.284821 0.474631
v 0.025260 4.991999 0.595460
v -0.280514 5.511889 0.684290
v -0.391328 5.541105 0.699038
v -0.411225 0.781725 0.179594
v -0.003207 -0.550453 -0.546838
v 0.996793 -0.550453 -0.546838
v 0.996793 -0.550453 0.453162
v -0.003207 -0.550453 0.453162
v -0.129406 7.878375 0.143877
v -0.390951 5.661428 0.250369
v -0.001633 5.493872 0.516941
v 0.486323 7.258574 -0.268779
v 0.210556 7.960739 0.005456
v 0.672480 4.202913 0.158656
v 0.671157 7.637834 -1.196796
v -0.048421 8.131943 -0.768033
v -0.020074 8.837370 -0.463720
v 0.140046 8.176160 -0.579967
v -0.448220 7.221580 -0.891527
v -0.609952 5.913528 -0.812798
v -0.442123 5.767594 -0.214304
v -0.284072 7.965466 -0.307706
v -1.003207 -0.550453 -0.546838
v -1.003207 -0.550453 0.453162
v -1.003207 -0.550453 -1.546838
v -0.003207 -0.550453 -1.546838
v 0.996793 -0.550453 -1.546838
v 0.543328 3.319196 -1.463603
v -0.434698 3.835922 -1.880382
v -0.576831 5.562066 0.575400
v -0.469369 4.996726 0.282298
v -0.076768 7.426516 -1.072346
v -0.507115 5.950327 -2.771692
v -0.097702 5.871916 -2.967778
v 0.795286 6.772500 -1.589707
v 0.828728 7.143724 -1.303827
v 0.300165 7.514950 -0.696214
v 0.215051 5.807206 -1.423807
v 0.217193 5.920669 -1.405490
v -0.000037 5.464085 0.521601
v -0.391195 5.572948 0.702513
v -0.403197 5.587340 0.647195
v -0.285950 5.740161 0.598258
v -0.265667 5.596057 0.497681
v -0.443627 5.746680 -0.213415
v -0.394042 5.635224 0.251628
v -0.504496 6.544022 -1.717607
v -0.095941 6.832937 -1.488373
v 0.640262 7.099507 -1.491893
vt 0.1661 0.6210
vt 0.0938 0.3981
vt 0.1454 0.3978
vt 0.1969 0.3976
vt 0.2304 0.6332
vt 0.5958 0.6817
vt 0.5513 0.4989
vt 0.6187 0.4998
vt 0.6465 0.5002
vt 0.6407 0.6721
vt 0.4216 0.6390
vt 0.3855 0.4794
vt 0.4207 0.4487
vt 0.4560 0.4181
vt 0.4828 0.6075
vt 0.7320 0.6225
vt 0.7340 0.4044
vt 0.7727 0.3440
vt 0.8012 0.2995
vt 0.8110 0.2971
vt 0.7961 0.7067
vt 0.7651 0.9125
vt 0.6780 0.9125
vt 0.6780 0.8251
vt 0.7651 0.8251
vt 0.7833 0.0888
vt 0.8037 0.2827
vt 0.7746 0.2996
vt 0.4445 0.1415
vt 0.4657 0.0781
vt 0.5054 0.4001
vt 0.4807 0.4091
vt 0.6645 0.1113
vt 0.5984 0.0639
vt 0.5987 0.0000
vt 0.6124 0.0587
vt 0.1111 0.1348
vt 0.1260 0.2493
vt 0.0756 0.2702
vt 0.0484 0.0794
vt 0.8522 0.9125
vt 0.8522 0.8251
vt 0.8522 1.0000
vt 0.7651 1.0000
vt 0.6780 1.0000
vt 0.7635 0.8251
vt 0.8490 0.8251
vt 0.7091 0.6078
vt 0.6836 0.4131
vt 0.7088 0.4088
vt 0.4191 0.8258
vt 0.5054 0.8257
vt 0.3328 0.8259
vt 0.3603 0.6705
vt 0.2912 0.4912
vt 0.3384 0.4853
vt 0.5918 0.8264
vt 0.6780 0.8275
vt 0.5056 0.8252
vt 0.5434 0.6583
vt 0.5054 0.4144
vt 0.5688 0.4468
vt 0.2061 0.8097
vt 0.2912 0.7934
vt 0.1209 0.8261
vt 0.1179 0.7026
vt 0.0008 0.3040
vt 0.0129 0.3018
vt 0.0454 0.3444
vt 0.1196 0.1112
vt 0.0457 0.0000
vt 0.0826 0.0556
vt 0.5783 0.2700
vt 0.6158 0.2790
vt 0.2469 0.4080
vt 0.2912 0.2133
vt 0.3336 0.1864
vt 0.3590 0.1543
vt 0.4057 0.1178
vt 0.6238 0.2721
vt 0.6240 0.2621
vt 0.6780 0.1901
vt 0.6468 0.4894
vt 1.0000 0.0000
vt 0.9936 0.0024
vt 1.0000 0.2520
vt 0.8771 0.1911
vt 0.4146 0.0589
vt 0.4234 0.0000
vt 0.7521 0.0804
vt 0.7745 0.3022
vt 0.7654 0.0000
vt 0.7891 0.0773
vt 0.0371 0.2864
vt 0.0097 0.0929
vt 0.8602 0.2788
vt 0.8846 0.3167
vt 0.8846 0.3870
vt 0.8490 0.3401
vt 0.0000 0.3014
vt 0.0046 0.2993
vt 0.0053 0.2845
vt 0.7970 0.2905
vt 0.8111 0.2943
vt 0.3049 0.8417
vt 0.2912 0.8328
vt 0.3049 0.8259
vt 0.0759 0.2720
vt 0.0375 0.2887
vt 0.5670 0.2096
vt 0.6001 0.1830
vt 0.5633 0.1438
vt 0.5980 0.1278
vt 0.0130 0.3017
vt 0.0158 0.2950
vt 0.8490 0.2788
vt 0.8717 0.1995
vt 0.6642 0.1606
vt 0.1924 0.1797
vt 0.3406 0.1567
vt 0.3669 0.1100
vn -0.9381 -0.1122 0.3276
vn -0.1511 -0.2957 -0.9432
vn 0.9854 -0.0983 -0.1390
vn 0.1082 -0.1096 0.9881
vn 0.0000 -1.0000 -0.0000
vn -0.5314 0.1031 0.8408
vn 0.8281 0.1241 0.5466
vn 0.4617 0.6409 -0.6133
vn -0.9699 0.0994 0.2221
vn -0.1023 0.1700 0.9801
vn -0.0269 0.1035 0.9943
vn 0.6410 -0.0324 0.7668
vn 0.9855 0.1608 -0.0536
vn 0.9744 0.2153 -0.0650
vn 0.9947 -0.0115 -0.1019
vn -0.0046 0.2016 -0.9794
vn 0.0393 0.1797 -0.9829
vn -0.5554 -0.1787 -0.8122
vn -0.9755 0.2197 -0.0115
vn -0.9308 0.2991 0.2100
vn -0.9805 -0.0327 0.1938
vn -0.8197 0.3394 -0.4614
vn -0.6873 -0.2504 -0.6819
vn -0.9807 0.0825 -0.1773
vn 0.9517 -0.0251 0.3060
vn 0.1487 0.1017 -0.9836
vn 0.7744 -0.1814 -0.6061
vn 0.9902 0.1332 0.0418
vn 0.9185 0.0973 -0.3832
vn 0.9524 0.2972 -0.0672
vn 0.4295 0.1502 0.8905
vn -0.4557 0.5129 0.7275
vn -0.9657 0.1026 0.2386
vn 0.7877 0.0991 0.6081
vn -0.4758 0.5995 0.6436
vn -0.7002 0.6391 0.3182
vn 0.4805 0.7226 0.4970
vn 0.8420 -0.2240 0.4907
vn -0.9544 0.0809 0.2873
vn -0.9267 0.1111 0.3590
vn -0.9861 0.1021 0.1308
vn -0.9926 0.0890 0.0831
vn -0.1944 0.8362 -0.5128
vn -0.3767 0.6588 -0.6513
vn -0.6717 0.6617 -0.3332
vn 0.3497 0.7940 0.4973
vn 0.5155 0.1593 0.8419
vn 0.9414 0.2729 -0.1983
vn -0.1533 0.1755 -0.9725
vn -0.9943 0.0939 -0.0504
vn -0.9922 0.1208 -0.0315
vn 0.5983 0.4009 -0.6938
vn -0.2649 0.4289 -0.8637
s 1
f 1/1/1 2/2/1 3/3/1 4/4/1 5/5/1
f 6/6/2 7/7/2 8/8/2 9/9/2 10/10/2
f 11/11/3 12/12/3 13/13/3 14/14/3 15/15/3
f 16/16/4 17/17/4 18/18/4 19/19/4 20/20/4 21/21/4
f 22/22/5 23/23/5 24/24/5 25/25/5
f 26/26/6 27/27/6 28/28/6
f 29/29/7 30/30/7 17/31/7 31/32/7
f 32/33/8 33/34/8 34/35/8 35/36/8
f 36/37/9 37/38/9 38/39/9 39/40/9
f 40/41/5 22/22/5 25/25/5 41/42/5
f 42/43/5 43/44/5 22/22/5 40/41/5
f 43/44/5 44/45/5 23/23/5 22/22/5
f 25/46/10 16/16/10 21/21/10 41/47/10
f 24/24/11 15/48/11 16/16/11 25/46/11
f 15/48/12 14/49/12 31/50/12 17/17/12 16/16/12
f 23/51/13 11/11/13 15/15/13 24/52/13
f 44/53/14 10/54/14 11/11/14 23/51/14
f 10/54/15 9/55/15 45/56/15 12/12/15 11/11/15
f 43/57/16 6/6/16 10/10/16 44/58/16
f 42/59/17 5/60/17 6/6/17 43/57/17
f 5/60/18 4/61/18 46/62/18 7/7/18 6/6/18
f 40/63/19 1/1/19 5/5/19 42/64/19
f 41/65/20 21/66/20 1/1/20 40/63/20
f 21/66/21 20/67/21 47/68/21 48/69/21 2/2/21 1/1/21
f 49/70/22 36/37/22 39/40/22 34/71/22 33/72/22
f 7/7/23 46/62/23 50/73/23 51/74/23
f 46/75/24 4/4/24 3/3/24 37/38/24 50/76/24
f 45/56/25 52/77/25 53/78/25 54/79/25 12/12/25
f 9/9/26 8/8/26 55/80/26 56/81/26 52/82/26 45/83/26
f 8/84/27 7/85/27 51/86/27 55/87/27
f 13/13/28 29/29/28 31/32/28 14/14/28
f 12/12/29 54/79/29 29/29/29 13/13/29
f 54/79/30 35/88/30 34/89/30 30/30/30 29/29/30
f 30/90/31 26/26/31 28/28/31 57/91/31 18/18/31 17/17/31
f 34/92/32 39/93/32 26/26/32 30/90/32
f 39/40/33 38/39/33 27/94/33 26/95/33
f 53/96/34 32/97/34 35/98/34 54/99/34
f 47/68/35 20/67/35 58/100/35 59/101/35
f 59/101/36 58/100/36 60/102/36
f 20/20/37 19/19/37 61/103/37 58/104/37
f 58/105/38 61/106/38 60/107/38
f 38/39/39 37/38/39 62/108/39
f 62/108/40 37/38/40 3/3/40 2/2/40
f 27/94/41 38/39/41 62/108/41 63/109/41
f 63/109/42 62/108/42 2/2/42 48/69/42
f 51/74/43 50/73/43 64/110/43 65/111/43
f 65/111/44 64/110/44 36/112/44 49/113/44
f 28/114/45 27/94/45 63/109/45 48/69/45 47/68/45 59/101/45 60/102/45 61/115/45
f 61/103/46 19/19/46 57/91/46 28/28/46
f 19/19/47 18/18/47 57/91/47
f 55/87/48 51/86/48 65/116/48 56/117/48
f 56/81/49 65/111/49 49/113/49 66/118/49 52/82/49
f 50/76/50 37/38/50 64/119/50
f 64/119/51 37/38/51 36/37/51
f 52/77/52 66/120/52 32/121/52 53/78/52
f 66/118/53 49/113/53 33/34/53 32/33/53
